<svg width="500" height="500" viewBox="0 0 500 500" xmlns="http://www.w3.org/2000/svg">
  <defs>
    <radialGradient id="grad1" cx="50%" cy="50%" r="50%" fx="50%" fy="50%">
      <stop offset="0%" style="stop-color:rgb(255,255,0);stop-opacity:1" />
      <stop offset="100%" style="stop-color:rgb(255,165,0);stop-opacity:1" />
    </radialGradient>
    <linearGradient id="grad2" x1="0%" y1="0%" x2="100%" y2="100%">
      <stop offset="0%" style="stop-color:rgb(255,0,0);stop-opacity:1" />
      <stop offset="100%" style="stop-color:rgb(255,0,255);stop-opacity:1" />
    </linearGradient>
  </defs>
  <circle cx="250" cy="250" r="200" fill="url(#grad1)" />
  <g transform="translate(250,250)">
    <g>
      <circle cx="0" cy="-150" r="40" fill="url(#grad2)" />
      <path d="M 0 -110 L 20 -90 L -20 -90 Z" fill="white" />
    </g>
    <g transform="rotate(60)">
      <circle cx="0" cy="-150" r="40" fill="url(#grad2)" />
      <path d="M 0 -110 L 20 -90 L -20 -90 Z" fill="white" />
    </g>
    <g transform="rotate(120)">
      <circle cx="0" cy="-150" r="40" fill="url(#grad2)" />
      <path d="M 0 -110 L 20 -90 L -20 -90 Z" fill="white" />
    </g>
    <g transform="rotate(180)">
      <circle cx="0" cy="-150" r="40" fill="url(#grad2)" />
      <path d="M 0 -110 L 20 -90 L -20 -90 Z" fill="white" />
    </g>
    <g transform="rotate(240)">
      <circle cx="0" cy="-150" r="40" fill="url(#grad2)" />
      <path d="M 0 -110 L 20 -90 L -20 -90 Z" fill="white" />
    </g>
    <g transform="rotate(300)">
      <circle cx="0" cy="-150" r="40" fill="url(#grad2)" />
      <path d="M 0 -110 L 20 -90 L -20 -90 Z" fill="white" />
    </g>
  </g>
  <circle cx="250" cy="250" r="50" fill="white"/>
  <circle cx="250" cy="250" r="40" fill="url(#grad2)"/>
</svg>
