<svg width="600" height="600" viewBox="0 0 600 600" xmlns="http://www.w3.org/2000/svg">
  <defs>
    <radialGradient id="centerGrad" cx="50%" cy="50%" r="50%">
      <stop offset="0%" stop-color="#FFD700" />
      <stop offset="100%" stop-color="#FFA500" />
    </radialGradient>
    <linearGradient id="petalGrad" x1="0" y1="0" x2="1" y2="1">
      <stop offset="0%" stop-color="#FF6B6B" />
      <stop offset="100%" stop-color="#FFB6C1" />
    </linearGradient>
    <linearGradient id="leafGrad" x1="0" y1="0" x2="1" y2="1">
      <stop offset="0%" stop-color="#4CAF50" />
      <stop offset="100%" stop-color="#8BC34A" />
    </linearGradient>
  </defs>

  <g transform="translate(300,300)">
    <!-- Central element -->
    <circle cx="0" cy="0" r="100" fill="url(#centerGrad)" />
    <circle cx="0" cy="0" r="80" fill="white" stroke="#FFA500" stroke-width="2" />
    <circle cx="0" cy="0" r="60" fill="url(#centerGrad)" />
    <circle cx="0" cy="0" r="40" fill="white" stroke="#FFA500" stroke-width="2" />
    <circle cx="0" cy="0" r="20" fill="#FF4500" />

    <!-- Petals -->
    <g id="petals">
      <path transform="translate(0, -150)" d="M0,0 C50,-50 50,-100 0,-150 C-50,-100 -50,-50 0,0 Z" fill="url(#petalGrad)" />
      <path transform="translate(0, -150) rotate(45)" d="M0,0 C40,-40 40,-80 0,-120 C-40,-80 -40,-40 0,0 Z" fill="url(#leafGrad)" opacity="0.7"/>
    </g>
    <use href="#petals" transform="rotate(45)" />
    <use href="#petals" transform="rotate(90)" />
    <use href="#petals" transform="rotate(135)" />
    <use href="#petals" transform="rotate(180)" />
    <use href="#petals" transform="rotate(225)" />
    <use href="#petals" transform="rotate(270)" />
    <use href="#petals" transform="rotate(315)" />

    <!-- Outer circles -->
    <g id="dots">
        <circle cx="0" cy="-250" r="10" fill="#FF6B6B" />
        <circle cx="0" cy="-220" r="7" fill="#4CAF50" />
    </g>
    <use href="#dots" transform="rotate(30)" />
    <use href="#dots" transform="rotate(60)" />
    <use href="#dots" transform="rotate(90)" />
    <use href="#dots" transform="rotate(120)" />
    <use href="#dots" transform="rotate(150)" />
    <use href="#dots" transform="rotate(180)" />
    <use href="#dots" transform="rotate(210)" />
    <use href="#dots" transform="rotate(240)" />
    <use href="#dots" transform="rotate(270)" />
    <use href="#dots" transform="rotate(300)" />
    <use href="#dots" transform="rotate(330)" />
  </g>
</svg>
