<svg width="200" height="200" viewBox="0 0 200 200" xmlns="http://www.w3.org/2000/svg">
  <defs>
    <!-- Main pattern definition -->
    <pattern id="ornatePattern" x="0" y="0" width="200" height="200" patternUnits="userSpaceOnUse">
      <!-- Background base -->
      <rect width="200" height="200" fill="#f5f1e8"/>
      
      <!-- Ornate scrollwork and floral motifs -->
      <!-- Central medallion -->
      <g fill="#e8ddd4" opacity="0.6">
        <!-- Central flower -->
        <circle cx="100" cy="100" r="8" fill="#d4c4b0"/>
        <circle cx="100" cy="100" r="4" fill="#c4b19a"/>
        
        <!-- Petals around center -->
        <ellipse cx="100" cy="85" rx="3" ry="8" transform="rotate(0 100 100)"/>
        <ellipse cx="115" cy="100" rx="8" ry="3" transform="rotate(0 100 100)"/>
        <ellipse cx="100" cy="115" rx="3" ry="8" transform="rotate(0 100 100)"/>
        <ellipse cx="85" cy="100" rx="8" ry="3" transform="rotate(0 100 100)"/>
        <ellipse cx="108" cy="92" rx="3" ry="8" transform="rotate(45 100 100)"/>
        <ellipse cx="108" cy="108" rx="8" ry="3" transform="rotate(45 100 100)"/>
        <ellipse cx="92" cy="108" rx="3" ry="8" transform="rotate(45 100 100)"/>
        <ellipse cx="92" cy="92" rx="8" ry="3" transform="rotate(45 100 100)"/>
      </g>
      
      <!-- Corner scrollwork -->
      <g fill="#d4c4b0" opacity="0.4">
        <!-- Top-left corner -->
        <path d="M20,20 Q30,10 40,20 Q30,30 20,20 Z"/>
        <path d="M15,25 Q25,15 35,25 Q25,35 15,25 Z"/>
        <path d="M10,30 Q20,20 30,30 Q20,40 10,30 Z"/>
        
        <!-- Top-right corner -->
        <path d="M180,20 Q190,10 200,20 Q190,30 180,20 Z"/>
        <path d="M185,25 Q195,15 205,25 Q195,35 185,25 Z"/>
        <path d="M190,30 Q200,20 210,30 Q200,40 190,30 Z"/>
        
        <!-- Bottom-left corner -->
        <path d="M20,180 Q30,190 40,180 Q30,170 20,180 Z"/>
        <path d="M15,175 Q25,185 35,175 Q25,165 15,175 Z"/>
        <path d="M10,170 Q20,180 30,170 Q20,160 10,170 Z"/>
        
        <!-- Bottom-right corner -->
        <path d="M180,180 Q190,190 200,180 Q190,170 180,180 Z"/>
        <path d="M185,175 Q195,185 205,175 Q195,165 185,175 Z"/>
        <path d="M190,170 Q200,180 210,170 Q200,160 190,170 Z"/>
      </g>
      
      <!-- Side scrollwork -->
      <g fill="#d4c4b0" opacity="0.3">
        <!-- Top side -->
        <path d="M60,20 Q70,10 80,20 Q70,30 60,20 Z"/>
        <path d="M120,20 Q130,10 140,20 Q130,30 120,20 Z"/>
        
        <!-- Bottom side -->
        <path d="M60,180 Q70,190 80,180 Q70,170 60,180 Z"/>
        <path d="M120,180 Q130,190 140,180 Q130,170 120,180 Z"/>
        
        <!-- Left side -->
        <path d="M20,60 Q10,70 20,80 Q30,70 20,60 Z"/>
        <path d="M20,120 Q10,130 20,140 Q30,130 20,120 Z"/>
        
        <!-- Right side -->
        <path d="M180,60 Q190,70 180,80 Q170,70 180,60 Z"/>
        <path d="M180,120 Q190,130 180,140 Q170,130 180,120 Z"/>
      </g>
      
      <!-- Connecting vines and tendrils -->
      <g fill="none" stroke="#c4b19a" stroke-width="0.5" opacity="0.3">
        <!-- Horizontal vines -->
        <path d="M40,50 Q60,45 80,50 Q100,55 120,50 Q140,45 160,50"/>
        <path d="M40,150 Q60,155 80,150 Q100,145 120,150 Q140,155 160,150"/>
        
        <!-- Vertical vines -->
        <path d="M50,40 Q45,60 50,80 Q55,100 50,120 Q45,140 50,160"/>
        <path d="M150,40 Q155,60 150,80 Q145,100 150,120 Q155,140 150,160"/>
        
        <!-- Diagonal vines -->
        <path d="M30,70 Q50,90 70,110 Q90,130 110,150 Q130,170 150,190"/>
        <path d="M170,30 Q150,50 130,70 Q110,90 90,110 Q70,130 50,150"/>
      </g>
      
      <!-- Small decorative elements -->
      <g fill="#b8a896" opacity="0.2">
        <!-- Small dots and circles -->
        <circle cx="50" cy="50" r="1"/>
        <circle cx="150" cy="50" r="1"/>
        <circle cx="50" cy="150" r="1"/>
        <circle cx="150" cy="150" r="1"/>
        <circle cx="100" cy="30" r="1"/>
        <circle cx="100" cy="170" r="1"/>
        <circle cx="30" cy="100" r="1"/>
        <circle cx="170" cy="100" r="1"/>
        
        <!-- Small leaves -->
        <ellipse cx="70" cy="70" rx="2" ry="1" transform="rotate(45 70 70)"/>
        <ellipse cx="130" cy="70" rx="2" ry="1" transform="rotate(-45 130 70)"/>
        <ellipse cx="70" cy="130" rx="2" ry="1" transform="rotate(-45 70 130)"/>
        <ellipse cx="130" cy="130" rx="2" ry="1" transform="rotate(45 130 130)"/>
      </g>
    </pattern>
  </defs>
  
  <!-- Apply the pattern to the entire canvas -->
  <rect width="200" height="200" fill="url(#ornatePattern)"/>
</svg>

